<svg xmlns="http://www.w3.org/2000/svg" xmlns:xlink="http://www.w3.org/1999/xlink" version="1.1" x="0px" y="0px" viewBox="0 0 1024 1093.94" style="width: 200px;height: 200px;"><style type="text/css"> .st3 { fill: #00A3EB; } .st4 { fill: none; stroke: #000000; stroke-width: 3.8361; stroke-linecap: round; stroke-linejoin: round; stroke-miterlimit: 10; } .st5 { fill: #FFFFFF; } .st6 { fill: #E50312; } .st7 { fill: #FAEA29; } .st8 { fill: #90E0FC; } .st9 { fill: none; stroke: #231F20; stroke-width: 1.9515; stroke-linecap: round; stroke-linejoin: round; stroke-miterlimit: 10; } .st10 { fill: none; stroke: #231F20; stroke-width: 1.9515; stroke-miterlimit: 10; } .st11 { fill: #F9D500; } </style><g id="Layer_1" style="display: block;transform: scale(1.4) translate(-167px, -94px);&#10;"><g><path class="st3" d="M240.82,342.02c0,0-6.98-105.74,81.72-170.31s264.36-69.38,350.95,36.93 c86.59,106.31,24.01,223.94-17.15,269.73c0,0-176.34-38.34-269.51,57.74L240.82,342.02z" /><path class="st4" d="M240.82,342.02c0,0-6.98-105.74,81.72-170.31s264.36-69.38,350.95,36.93 c86.59,106.31,24.01,223.94-17.15,269.73c0,0-176.34-38.34-269.51,57.74L240.82,342.02z" /><path class="st5" d="M330.18,212.18l186.34,7.73c0,0,132.36,18.66,132.39,141.02c0.02,119.7-88.28,108.44-88.28,108.44 c-11.82,0.7-126.51,7.65-173.78,66.73c0,0-65.74-31.48-103.84-79.54C232.51,392.86,205.72,262.27,330.18,212.18z" /><path class="st4" d="M330.18,212.18l186.34,7.73c0,0,132.36,18.66,132.39,141.02c0.02,119.7-88.28,108.44-88.28,108.44 c-11.82,0.7-126.51,7.65-173.78,66.73c0,0-65.74-31.48-103.84-79.54C232.51,392.86,205.72,262.27,330.18,212.18z" /><path class="st5" d="M385.84,254.45c0,0,32.66-18.66,30-68.66c-2.67-49.99-40.4-64.13-72.65-17.33 C309.19,217.79,347.85,277.12,385.84,254.45z" /><path class="st5" d="M416.1,200.18c0,0,0.64-52.88,44.64-60.3c43.99-7.42,59.32,36.3,58.66,59.77 c-0.67,23.47-12.24,71.78-66.66,59.77C412.08,250.45,416.1,200.18,416.1,200.18z" /><path class="st4" d="M385.84,254.45c0,0,32.66-18.66,30-68.66c-2.67-49.99-40.4-64.13-72.65-17.33 C309.19,217.79,347.85,277.12,385.84,254.45z" /><path class="st4" d="M416.1,200.18c0,0,0.64-52.88,44.64-60.3c43.99-7.42,59.32,36.3,58.66,59.77 c-0.67,23.47-12.24,71.78-66.66,59.77C412.08,250.45,416.1,200.18,416.1,200.18z" /><path d="M408.02,203.56c-0.53,9.85-6.64,17.54-13.65,17.16c-7.01-0.38-12.26-8.67-11.73-18.52c0.53-9.85,6.64-17.54,13.65-17.16 C403.3,185.41,408.55,193.71,408.02,203.56z" /><path class="st5" d="M402.6,203.2c-0.25,4.65-3.13,8.28-6.44,8.1c-3.31-0.18-5.79-4.09-5.54-8.74c0.25-4.65,3.13-8.28,6.44-8.1 C400.37,194.64,402.85,198.55,402.6,203.2z" /><ellipse transform="matrix(0.0536 -0.9986 0.9986 0.0536 237.4977 659.9698)" cx="466.91" cy="204.69" rx="17.87" ry="12.71" /><path class="st5" d="M474.18,205.01c-0.25,4.65-3.13,8.28-6.44,8.1c-3.31-0.18-5.79-4.09-5.54-8.74c0.25-4.65,3.13-8.28,6.44-8.1 C471.95,196.45,474.43,200.37,474.18,205.01z" /><ellipse transform="matrix(0.8441 -0.5362 0.5362 0.8441 -85.4458 255.4649)" class="st6" cx="396.61" cy="274.68" rx="29.81" ry="29.81" /><ellipse transform="matrix(0.8441 -0.5362 0.5362 0.8441 -85.4458 255.4649)" class="st4" cx="396.61" cy="274.68" rx="29.81" ry="29.81" /><path class="st3" d="M376.84,590.77l-22.07,35.97l38.53,38.53c0,0,24.44-10.47,34.14-24.98 C437.14,625.77,413.1,573.48,376.84,590.77z" /><path class="st4" d="M376.84,590.77l-22.07,35.97l38.53,38.53c0,0,24.44-10.47,34.14-24.98 C437.14,625.77,413.1,573.48,376.84,590.77z" /><circle class="st7" cx="374.93" cy="573.92" r="35.27" /><circle class="st4" cx="374.93" cy="573.92" r="35.27" /><path class="st7" d="M337.27,580.35c-1.56,0-3.12-0.57-4.36-1.71c-2.59-2.4-2.72-6.47-0.33-9.06c0.9-0.97,22.64-23.65,80.27-13.98 c3.48,0.58,5.83,3.88,5.25,7.36c-0.58,3.48-3.87,5.83-7.36,5.25c-26.35-4.42-43.71-1.39-53.64,1.93 c-10.58,3.54-15.13,8.13-15.18,8.18C340.67,579.67,338.97,580.35,337.27,580.35z" /><path class="st4" d="M337.27,580.35c-1.56,0-3.12-0.57-4.36-1.71c-2.59-2.4-2.72-6.47-0.33-9.06c0.9-0.97,22.64-23.65,80.27-13.98 c3.48,0.58,5.83,3.88,5.25,7.36c-0.58,3.48-3.87,5.83-7.36,5.25c-26.35-4.42-43.71-1.39-53.64,1.93 c-10.58,3.54-15.13,8.13-15.18,8.18C340.67,579.67,338.97,580.35,337.27,580.35z" /><path class="st5" d="M402.36,524.62c0,0-19.01,7.83-19.7,15.39c-0.69,7.56,5.84,106,56.53,152.7s72.15-51.17,39.66-124.88 C446.35,494.13,402.36,524.62,402.36,524.62z" /><path class="st4" d="M402.36,524.62c0,0-19.01,7.83-19.7,15.39c-0.69,7.56,5.84,106,56.53,152.7s72.15-51.17,39.66-124.88 C446.35,494.13,402.36,524.62,402.36,524.62z" /><path class="st5" d="M696.24,763.16c0,0,36.73,37.74-20.28,53.72c-57.01,15.98-129.27-3.27-134.36-13.44s16.51-53.02,48.56-54.11 C622.21,748.24,696.24,763.16,696.24,763.16z" /><path class="st4" d="M696.24,763.16c0,0,36.73,37.74-20.28,53.72c-57.01,15.98-129.27-3.27-134.36-13.44s16.51-53.02,48.56-54.11 C622.21,748.24,696.24,763.16,696.24,763.16z" /><path class="st5" d="M409.7,753.85c0,0-20.82-7.1-27.09,19.14c-6.27,26.24,10.03,56.76,87.78,58.85 c77.75,2.09,143.89-7.17,111.24-63.78C548.97,711.44,409.7,753.85,409.7,753.85z" /><path class="st4" d="M409.7,753.85c0,0-20.82-7.1-27.09,19.14c-6.27,26.24,10.03,56.76,87.78,58.85 c77.75,2.09,143.89-7.17,111.24-63.78C548.97,711.44,409.7,753.85,409.7,753.85z" /><path class="st3" d="M402.36,524.62c0,0,93.06,28.9,67.59,144.49c0,0-52.41,24.98-60.25,84.74c0,0,40.65,30.86,171.92,14.2 c0,0,62.21,11.76,114.61-4.9c0,0,7.78-26.24,30.6-62.65c54.17-86.44-59.35-177.09-66.52-215.42 C660.32,485.08,540.16,427.56,402.36,524.62z" /><path class="st4" d="M402.36,524.62c0,0,93.06,28.9,67.59,144.49c0,0-52.41,24.98-60.25,84.74c0,0,40.65,30.86,171.92,14.2 c0,0,62.21,11.76,114.61-4.9c0,0,7.78-26.24,30.6-62.65c54.17-86.44-59.35-177.09-66.52-215.42 C660.32,485.08,540.16,427.56,402.36,524.62z" /><path class="st6" d="M381.96,547.58c-2.23,0-4.46-0.82-6.19-2.48c-3.57-3.42-3.7-9.07-0.28-12.64 c1.15-1.21,28.82-29.82,77.98-51.33c45.33-19.83,118.21-36.99,207.97-6.11c4.68,1.61,7.16,6.7,5.55,11.38 c-1.61,4.67-6.7,7.16-11.37,5.55c-67.42-23.19-132.78-21.41-194.28,5.28c-46.11,20.01-72.66,47.34-72.92,47.61 C386.67,546.65,384.32,547.58,381.96,547.58z" /><path class="st4" d="M381.96,547.58c-2.23,0-4.46-0.82-6.19-2.48c-3.57-3.42-3.7-9.07-0.28-12.64 c1.15-1.21,28.82-29.82,77.98-51.33c45.33-19.83,118.21-36.99,207.97-6.11c4.68,1.61,7.16,6.7,5.55,11.38 c-1.61,4.67-6.7,7.16-11.37,5.55c-67.42-23.19-132.78-21.41-194.28,5.28c-46.11,20.01-72.66,47.34-72.92,47.61 C386.67,546.65,384.32,547.58,381.96,547.58z" /><path class="st4" d="M390.15,303.78c0,0-9.54,22.64-9.26,66.61c0,0-12.68-10.71-26.5-5.36c-13.81,5.36-29.58,40.87,12.41,58.35 c0,0-22.56,6.76-16.07,29.31c6.48,22.55,28.75,19.17,41.15,12.4" /><path class="st4" d="M430.95,684.24c38.39-19.38,11.87-87.92,11.87-87.92c-16,14.32-45.71,24.23-45.75,24.25 C404.36,643.09,415.15,666.26,430.95,684.24z" /><circle class="st5" cx="650.21" cy="585.63" r="44.69" /><circle class="st4" cx="650.21" cy="585.63" r="44.69" /><circle class="st5" cx="354.77" cy="665.27" r="38.53" /><circle class="st4" cx="354.77" cy="665.27" r="38.53" /><path class="st4" d="M524.69,478.74c0,0,89.06,24.4,110.97,64.64" /><path class="st4" d="M496.41,562.31c0,0,93.64,40.91,112.11,39.44" /><path class="st4" d="M451.74,308.24c0,0,83.35-18.39,92.39-19.64c9.04-1.25,46.14-4.68,46.14-4.68" /><path class="st4" d="M454.35,335.36c0,0,78.56,4.99,90.41,5.92c11.85,0.94,54.87,6.23,54.87,6.23" /><line class="st4" x1="451.74" y1="360.92" x2="577.96" y2="425.77" /><line class="st4" x1="229.19" y1="237.93" x2="336.06" y2="289.18" /><line class="st4" x1="328.13" y1="311.46" x2="192.05" y2="304.82" /><line class="st4" x1="328.13" y1="340.17" x2="221.18" y2="377.46" /><ellipse transform="matrix(0.7071 -0.7071 0.7071 0.7071 -241.2179 727.9929)" class="st6" cx="758.16" cy="655.17" rx="29.81" ry="29.81" /><ellipse transform="matrix(0.7071 -0.7071 0.7071 0.7071 -241.2179 727.9929)" class="st4" cx="758.16" cy="655.17" rx="29.81" ry="29.81" /><line class="st4" x1="728.35" y1="655.17" x2="707.88" y2="656.91" /><path class="st4" d="M581.62,768.05c0,0,21.72-17.63,37.77-36.79c6.14-7.33,15.05-11.96,24.6-12.38 c4.25-0.18,8.81,0.42,13.29,2.47" /></g></g></svg>